PathFileType	4	(X/Y/Z)	C:/Users/opensim2020/Desktop/walking_exp_matlab/subject06_walking14_straight_04.trc																																																																																																																																					
DataRate	CameraRate	NumFrames	NumMarkers	Units	OrigDataRate	OrigDataStartFrame	OrigNumFrames																																																																																																																																	
100	100	8	45	mm	100	2917	227																																																																																																																																	
Frame#	Time	LFHD			RFHD			LBHD			RBHD			C7			T10			CLAV			STRN			RBAK			LSHO			LUPA			LELB			LFRM			LWRA			LWRB			LFIN			RSHO			RUPA			RELB			RFRM			RWRA			RWRB			RFIN			LASI			RASI			LPSI			RPSI			LTHI			LKNE			LTIB			LANK			LHEE			LTOE			RTHI			RKNE			RTIB			RANK			RHEE			RTOE			*39			*40			*41			*42			*43			*44		
		X1	Y1	Z1	X2	Y2	Z2	X3	Y3	Z3	X4	Y4	Z4	X5	Y5	Z5	X6	Y6	Z6	X7	Y7	Z7	X8	Y8	Z8	X9	Y9	Z9	X10	Y10	Z10	X11	Y11	Z11	X12	Y12	Z12	X13	Y13	Z13	X14	Y14	Z14	X15	Y15	Z15	X16	Y16	Z16	X17	Y17	Z17	X18	Y18	Z18	X19	Y19	Z19	X20	Y20	Z20	X21	Y21	Z21	X22	Y22	Z22	X23	Y23	Z23	X24	Y24	Z24	X25	Y25	Z25	X26	Y26	Z26	X27	Y27	Z27	X28	Y28	Z28	X29	Y29	Z29	X30	Y30	Z30	X31	Y31	Z31	X32	Y32	Z32	X33	Y33	Z33	X34	Y34	Z34	X35	Y35	Z35	X36	Y36	Z36	X37	Y37	Z37	X38	Y38	Z38	X39	Y39	Z39	X40	Y40	Z40	X41	Y41	Z41	X42	Y42	Z42	X43	Y43	Z43	X44	Y44	Z44	X45	Y45	Z45
																																																																																																																																								
1	0	-1152.22852	1657.29187	872.2865	-1153.82764	1652.27771	1004.88727	-1286.54492	1603.1438	873.56366	-1285.91882	1603.81384	1003.21973	-1288.93884	1447.42871	931.8772	-1324.87744	1118.96326	944.2998	-1177.34485	1371.80603	946.2619	-1137.56641	1195.97986	950.5719	-1369.37598	1280.90857	1005.80853	-1218.60168	1397.84839	778.80042	-1189.84912	1195.85437	711.1734	-1173.71948	1083.56177	701.08734	-1106.65186	948.23975	686.72601	-1016.47253	860.14825	736.00854	-1070.28442	834.84259	696.67639	-1004.65662	773.00165	699.53131	-1241.58667	1410.52686	1100.70349	-1323.67395	1228.76086	1187.69592	-1339.26636	1106.56726	1202.67822	-1349.76245	986.63861	1222.60095	-1317.49036	837.0094	1196.51331	-1373.91882	850.61639	1233.42908	-1355.43323	767.24103	1235.78223	-1137.95752	957.26312	855.51318	-1162.92297	962.4212	1074.92175	-1297.64111	987.22632	864.75671	-1312.72656	984.92285	1032.66833	-1209.95508	641.65216	804.76123	-1226.4231	479.01712	834.48694	-1290.50684	228.66597	857.62555	-1316.20557	63.01226	915.23865	-1357.80261	52.28661	960.2182	-1172.15637	33.80836	920.58917	-1141.45374	643.49561	1143.80029	-1089.2594	528.14673	1129.76868	-1197.14124	291.58313	1123.97229	-1270.1571	120.79037	1080.89331	-1306.82837	104.24841	1028.99316	-1141.5127	42.78386	1110.68689	-1253.18555	1698.80786	928.95941	NaN	NaN	NaN	NaN	NaN	NaN	NaN	NaN	NaN	NaN	NaN	NaN	NaN	NaN	NaN
2	0.01	-1142.50732	1657.13782	873.37152	-1144.18469	1651.81055	1005.92004	-1276.96582	1602.93188	874.27014	-1276.28247	1603.31958	1004.11487	-1279.22424	1447.12695	932.33008	-1315.53064	1118.74548	944.70862	-1167.67395	1371.43286	946.8255	-1128.21802	1195.41589	950.62939	-1359.849	1280.58569	1005.7193	-1208.93127	1397.85339	779.28094	-1178.06177	1196.32996	711.57288	-1160.10022	1084.27063	701.48712	-1089.42444	950.72247	687.47705	-996.5672	865.82227	737.55322	-1049.61646	838.4884	698.56897	-982.09412	778.75787	701.77753	-1232.09094	1409.90015	1101.1759	-1315.60437	1228.56287	1187.37354	-1332.14465	1106.49084	1202.23303	-1344.28125	986.67303	1222.00854	-1314.30981	836.48511	1195.8584	-1370.45776	850.86041	1232.5437	-1353.35168	767.10522	1234.86414	-1129.83789	956.31262	854.99316	-1152.77209	962.15656	1074.52966	-1289.46387	986.80695	865.66919	-1303.26929	984.9848	1033.72522	-1204.51611	640.953	805.14642	-1222.13696	478.54184	834.89459	-1288.48975	228.6692	857.70294	-1315.80676	63.21976	915.38019	-1357.56348	52.67904	960.32153	-1171.96069	33.66269	920.54034	-1130.06177	644.33051	1144.17029	-1077.25232	529.25055	1129.30981	-1175.82483	287.84235	1124.43628	-1239.34106	112.87178	1082.29553	-1275.50732	94.82661	1030.83545	-1106.82959	41.95914	1113.49365	-1243.49878	1698.46912	930.06433	NaN	NaN	NaN	NaN	NaN	NaN	NaN	NaN	NaN	NaN	NaN	NaN	NaN	NaN	NaN
3	0.02	-1132.79858	1656.91492	874.49261	-1134.55969	1651.30469	1007.02399	-1267.22546	1602.63184	875.12378	-1266.45032	1602.69592	1004.74097	-1269.45129	1446.77734	932.8587	-1306.14624	1118.43091	945.15179	-1157.92798	1370.99683	947.35858	-1118.67212	1194.83496	950.67529	-1350.33337	1280.20654	1005.776	-1199.15613	1397.70996	779.83392	-1166.39868	1196.66467	711.9931	-1146.67981	1084.77722	701.90192	-1072.49854	953.14429	688.75598	-976.96466	871.60785	739.09991	-1029.27759	842.29059	700.49414	-959.83734	784.68591	704.1543	-1222.52625	1409.22571	1101.70679	-1307.4563	1228.38989	1187.21167	-1324.88855	1106.35547	1201.85388	-1338.61121	986.65594	1221.45068	-1310.7937	836.02399	1195.27087	-1366.8208	851.29364	1232.0094	-1351.23511	767.37091	1234.13562	-1121.85864	955.40735	854.53333	-1142.80054	961.89014	1074.37354	-1281.31897	986.2616	866.67346	-1293.52051	984.90771	1034.85095	-1198.92749	640.45856	805.91064	-1217.54395	477.98145	835.42773	-1286.42029	228.70609	857.85004	-1315.43665	63.40092	915.50671	-1357.33191	53.10305	960.39337	-1171.9176	33.53358	920.53363	-1119.17761	644.6748	1144.36401	-1065.93872	529.89001	1128.63171	-1154.44666	284.06454	1124.87939	-1208.09534	105.40849	1083.40649	-1242.21448	84.78415	1031.6886	-1072.34277	41.60263	1115.82458	-1233.83899	1698.02856	931.15161	NaN	NaN	NaN	NaN	NaN	NaN	NaN	NaN	NaN	NaN	NaN	NaN	NaN	NaN	NaN
4	0.03	-1122.99939	1656.59167	875.57196	-1124.87573	1650.72083	1008.06549	-1257.46655	1602.21704	876.02338	-1257.0376	1601.96008	1005.91077	-1259.61157	1446.37842	933.4101	-1296.83948	1118.09119	945.70996	-1148.1178	1370.47961	947.89227	-1109.11536	1194.22791	950.80438	-1340.72766	1279.81152	1005.87292	-1189.3446	1397.43359	780.41449	-1154.8114	1196.82983	712.44348	-1133.5083	1085.26868	702.19586	-1055.82202	955.54749	689.68646	-957.83545	877.49115	740.73541	-1009.08978	846.20276	702.38098	-937.91559	790.90588	706.54999	-1212.81787	1408.47144	1102.28381	-1299.11975	1228.18835	1187.20044	-1317.51636	1106.20642	1201.5293	-1332.745	986.64209	1220.9491	-1306.90051	835.65961	1194.7489	-1362.91724	851.5896	1231.40088	-1348.51636	767.43207	1233.41724	-1113.80896	954.52185	854.1333	-1132.69788	961.40784	1074.14612	-1273.16431	985.65509	867.72876	-1283.84241	984.60889	1035.98535	-1193.25208	639.87842	806.56348	-1213.14697	477.47598	835.83624	-1284.3291	228.78993	858.03638	-1315.06238	63.638	915.61255	-1357.14136	53.57106	960.47729	-1171.83179	33.45128	920.44458	-1108.87598	644.44775	1144.37732	-1054.96643	530.17987	1128.25562	-1133.08472	280.4281	1125.24011	-1176.84753	98.83767	1084.73633	-1209.82935	76.51556	1032.87781	-1037.84668	41.32924	1117.43311	-1224.19238	1697.51318	932.25824	NaN	NaN	NaN	NaN	NaN	NaN	NaN	NaN	NaN	NaN	NaN	NaN	NaN	NaN	NaN
5	0.04	-1113.33533	1656.1803	876.66437	-1115.19971	1650.0708	1009.08899	-1247.64673	1601.65515	876.93079	-1247.2384	1601.12341	1006.7619	-1249.75964	1445.9386	934.01422	-1287.50818	1117.67627	946.3913	-1138.28052	1369.8656	948.52557	-1099.58618	1193.46118	951.0415	-1331.08142	1279.40613	1006.13501	-1179.43347	1397.11023	781.0072	-1143.37402	1196.84741	712.93994	-1120.68835	1085.41199	702.79907	-1039.44348	957.91919	690.87054	-938.53632	883.50696	742.71088	-989.27338	850.15479	704.45886	-916.36011	797.22198	708.97357	-1203.02722	1407.67871	1102.86316	-1290.60364	1227.8241	1187.02649	-1309.93262	1105.98547	1201.27368	-1326.58142	986.56097	1220.54651	-1302.72815	835.14648	1194.29529	-1358.60571	851.99219	1230.9635	-1345.38269	767.48273	1232.7854	-1105.76233	953.54773	853.71143	-1122.68823	960.9447	1074.42725	-1264.89551	984.94177	868.79407	-1274.22559	984.1875	1037.11682	-1187.31824	639.16333	807.41901	-1208.35315	476.85825	836.4054	-1282.30933	228.9332	858.27673	-1314.70032	63.94601	915.69098	-1356.93799	54.07257	960.49255	-1171.9187	33.39801	920.41046	-1099.15796	644.06683	1144.64502	-1044.76831	530.06531	1127.76086	-1111.66345	276.72992	1125.75659	-1145.61755	92.9963	1086.00439	-1176.77722	68.63463	1033.93018	-1003.90839	41.71383	1118.5144	-1214.49194	1696.89734	933.33569	NaN	NaN	NaN	NaN	NaN	NaN	NaN	NaN	NaN	NaN	NaN	NaN	NaN	NaN	NaN
6	0.05	-1103.50671	1655.68396	877.7204	-1105.46387	1649.34338	1010.14026	-1237.70288	1600.96851	877.92163	-1237.50989	1600.29065	1007.70074	-1239.73157	1445.31616	934.58008	-1278.18213	1117.16113	947.10986	-1128.33276	1369.10095	949.10999	-1090.08032	1192.55969	951.25372	-1321.41895	1278.96204	1006.50714	-1169.47375	1396.67676	781.61969	-1132.03516	1196.75049	713.45142	-1107.9895	1085.55444	703.37262	-1023.37213	960.28027	692.10321	-921.02551	889.15222	744.44299	-969.99658	854.27075	706.59308	-895.33856	803.70117	711.38855	-1193.12805	1406.83618	1103.46863	-1281.86316	1227.47778	1187.19849	-1302.09521	1105.68555	1201.06299	-1320.16724	986.45081	1220.21094	-1298.14038	834.65466	1194.00928	-1353.84033	852.14667	1230.34985	-1341.8606	767.54633	1232.27893	-1097.56604	952.56982	853.50543	-1112.68127	960.21985	1074.19446	-1256.58167	984.17334	869.87531	-1264.57129	983.58276	1038.27209	-1181.29895	638.4364	807.72052	-1203.2926	476.20819	837.09283	-1280.13623	229.04189	858.40289	-1314.37415	64.31301	915.69983	-1356.69507	54.57857	960.46667	-1171.85974	33.30116	920.32281	-1089.89709	643.04126	1144.46521	-1034.81458	529.40192	1127.38477	-1090.57129	273.33411	1126.06714	-1114.16687	87.58807	1086.89648	-1144.65063	62.47592	1035.04541	-970.03839	42.1818	1119.05676	-1204.79297	1696.18237	934.42419	NaN	NaN	NaN	NaN	NaN	NaN	NaN	NaN	NaN	NaN	NaN	NaN	NaN	NaN	NaN
7	0.06	-1093.69336	1655.05481	878.7713	-1095.67993	1648.51514	1011.19464	-1227.90112	1600.23438	878.86102	-1227.61584	1599.33435	1008.58582	-1229.76892	1444.66089	935.26404	-1268.89978	1116.5979	947.96844	-1118.35095	1368.30798	949.76038	-1080.46069	1191.65198	951.54285	-1311.66479	1278.52649	1006.95569	-1159.49707	1396.2052	782.32098	-1120.80627	1196.60437	714.01062	-1095.3894	1085.67029	703.98877	-1007.62976	962.69189	693.38721	-903.34949	895.02679	746.38495	-951.03174	858.38538	708.73199	-874.84637	810.29608	713.84985	-1183.17395	1405.96484	1104.10364	-1272.97009	1226.9635	1187.18762	-1294.03345	1105.35559	1200.96716	-1313.45325	986.26886	1219.9978	-1293.03345	834.28857	1193.72827	-1348.7179	852.39838	1230.07544	-1337.89758	767.62457	1231.8573	-1089.70642	951.45404	853.28992	-1102.93982	959.53912	1074.33813	-1248.14294	983.40045	870.97729	-1254.2041	982.70844	1039.39954	-1175.03247	637.72955	808.37421	-1197.9751	475.56168	837.5686	-1277.81763	229.2991	858.61731	-1313.87659	64.67603	915.75031	-1356.65076	55.47577	960.63385	-1171.78027	33.24773	920.26471	-1081.06421	641.89319	1144.59631	-1025.3064	528.39606	1126.94019	-1069.76563	270.14258	1126.21765	-1083.25403	83.18311	1087.96924	-1112.67493	57.12835	1036.03601	-936.77704	42.99454	1119.08057	-1195.03564	1695.34985	935.49817	NaN	NaN	NaN	NaN	NaN	NaN	NaN	NaN	NaN	NaN	NaN	NaN	NaN	NaN	NaN
8	0.07	-1083.90161	1654.30237	879.77826	-1085.88525	1647.5946	1012.24042	-1217.99768	1599.35547	879.62463	-1217.6543	1598.28955	1009.35583	-1219.69507	1443.89343	935.94879	-1259.61145	1115.96155	948.86145	-1108.3092	1367.36938	950.41376	-1070.88904	1190.67493	951.84009	-1301.90955	1278.03333	1007.51624	-1149.39844	1395.64709	783.02673	-1109.55859	1196.38879	714.66614	-1083.00232	1085.79382	704.6441	-992.1123	965.00391	694.78876	-886.03662	900.87482	748.32587	-932.68365	862.48785	711.18787	-854.83203	816.96973	716.37695	-1173.10596	1405.00989	1104.74377	-1263.86877	1226.44641	1187.48572	-1285.76343	1104.93689	1200.9408	-1306.37817	986.01837	1219.84741	-1287.72717	833.83252	1193.66382	-1343.22046	852.51868	1229.85828	-1333.41785	767.56781	1231.52515	-1080.92773	950.51819	853.33856	-1092.9137	958.65808	1074.37476	-1239.58899	982.5191	872.11755	-1244.4082	981.82697	1040.59924	-1168.67017	636.95477	809.01361	-1192.50403	474.92334	838.13214	-1275.18958	229.44331	858.79266	-1313.31897	65.13265	915.8512	-1356.34839	56.39106	960.58826	-1171.6333	33.1988	920.1947	-1072.4093	640.29248	1144.50391	-1016.06171	527.02338	1126.4657	-1049.3418	267.20941	1126.21997	-1052.5249	79.54317	1088.98718	-1080.37048	51.86835	1037.22192	-904.24115	44.31253	1118.81848	-1185.24158	1694.44397	936.52942	NaN	NaN	NaN	NaN	NaN	NaN	NaN	NaN	NaN	NaN	NaN	NaN	NaN	NaN	NaN
